<svg width="68" height="56" viewBox="0 0 68 56" fill="none" xmlns="http://www.w3.org/2000/svg">
<g id="icon">
<rect id="background copy" width="68" height="56" rx="4" fill="#F2F5F7"/>
<path id="Border Copy" fill-rule="evenodd" clip-rule="evenodd" d="M64 0H4C1.79086 0 0 1.79086 0 4V52C0 54.2091 1.79086 56 4 56H64C66.2091 56 68 54.2091 68 52V4C68 1.79086 66.2091 0 64 0ZM4 52V4H64V52H4Z" fill="#DADADA"/>
<path id="Oval 2" fill-rule="evenodd" clip-rule="evenodd" d="M11 16.5C11 20.6421 14.3579 24 18.5 24C22.6421 24 26 20.6421 26 16.5C26 12.3579 22.6421 9 18.5 9C14.3579 9 11 12.3579 11 16.5ZM22 16.5C22 18.433 20.433 20 18.5 20C16.567 20 15 18.433 15 16.5C15 14.567 16.567 13 18.5 13C20.433 13 22 14.567 22 16.5Z" fill="#DADADA"/>
<path id="Path 4" d="M14.4081 47.4204C13.6237 48.198 12.3574 48.1926 11.5797 47.4081C10.802 46.6237 10.8075 45.3574 11.5919 44.5797L28.0413 28.272L37.3126 36.3362C38.146 37.0611 38.2339 38.3243 37.509 39.1578C36.7841 39.9912 35.5209 40.0791 34.6874 39.3542L28.2192 33.7281L14.4081 47.4204Z" fill="#DADADA"/>
<path id="Path 4_2" d="M29.4143 47.4141C28.6333 48.1951 27.3669 48.1952 26.5858 47.4142C25.8048 46.6332 25.8047 45.3668 26.5857 44.5858L52.9084 18.2607L67.3191 30.9051C68.1493 31.6336 68.2318 32.8973 67.5033 33.7276C66.7748 34.5578 65.5112 34.6403 64.6809 33.9118L53.0872 23.7391L29.4143 47.4141Z" fill="#DADADA"/>
</g>
</svg>
