<svg width="188" height="50" viewBox="0 0 188 50" fill="none" xmlns="http://www.w3.org/2000/svg">
<g id="logo">
<g id="Symbol">
<path id="Vector" d="M45.9604 49.2079L44.5635 42.7396L37.231 34.1503L24.3771 37.6441L24.0158 38.0753L23.7558 37.6441L7.72471 32.9095L0.497955 22.6437L9.40802 10.7851L10.2144 11.3879L2.26939 21.9617L8.36366 20.9804L10.3378 11.5595L11.3205 11.7619L9.56665 20.14L15.7358 15.1105L12.6424 11.3747L13.418 10.7367L16.5334 14.4901L21.6538 10.7103L21.6274 10.6311L21.8037 10.5475L23.3988 2.26622L13.8851 8.10973L13.3475 7.23409L23.65 0.91095L23.7426 0.440125L24.2449 0.73054L40.4963 1.46098L40.9546 1.22777L41.0691 1.71179L51.332 11.8367L56.9856 16.7606L56.3158 17.5174L51.2791 13.1436L48.9877 23.8362L54.9806 30.3573L57.4395 21.174L58.4134 21.4336L55.7298 31.4882L54.2844 39.8662L60.9559 30.1769L58.7659 21.5305L59.7441 21.284L62.04 30.3573L53.8702 42.2248V42.2864L53.7865 42.3656L53.6807 42.5152H53.6058L45.9648 49.2035L45.9604 49.2079ZM45.6476 42.9816L46.5862 47.3378L51.9577 42.6472L45.652 42.9816H45.6476ZM37.9625 33.4683L45.251 41.9959L52.1605 41.6043L48.0976 37.9169L48.7674 37.1733L53.0418 41.0499L54.5576 32.2934L49.0847 35.0612L48.6484 34.1635L54.4254 31.2462L48.2827 24.527L40.8973 25.4687L45.6255 33.3275L44.7574 33.8423L40.1834 26.2871L37.9625 33.4683ZM9.70326 32.4342L22.9802 36.3548L20.4729 32.1966L21.3366 31.6774L24.1524 36.346L29.5416 30.0317L31.3659 23.779L32.3309 24.0606L30.4493 30.5201L25.5228 36.302L36.7199 33.2571L33.0756 24.0342L34.0142 23.6646L37.3368 32.0778L39.4299 25.3367L34.684 23.0265L35.1291 22.1201L39.6502 24.329L41.6993 11.8015L34.7061 19.7704L33.9481 19.1015L41.6376 10.3407L35.7901 7.91172L36.1779 6.98327L41.7698 9.2978L40.2539 2.71945L36.1162 4.82276L35.6579 3.92951L38.6808 2.39383L26.1794 1.8306L29.5812 3.7535L29.0877 4.62915L24.4784 2.01541L22.9362 10.015L29.0392 7.16368L29.4667 8.07453L22.8789 11.1503L25.3069 18.0939L30.3744 9.04258L31.2557 9.53101L25.0821 20.5316L25.0513 20.4436L21.4555 25.9615L20.6139 25.4115L24.6239 19.2423L21.9799 11.6959L16.9829 15.3833L18.8116 25.0022L17.8201 25.1914L16.0928 16.083L9.59309 21.3808L16.2778 26.1991L15.6874 27.0175L8.63687 21.9397L1.97415 23.0177L8.20943 31.8754L15.3304 29.4993L15.6653 30.4497L9.69004 32.4386L9.70326 32.4342ZM45.7709 17.447L41.0736 24.4258L48.0403 23.537L50.1731 13.6056L45.7753 17.447H45.7709ZM42.9331 10.3583L40.8885 22.8769L44.9998 16.7782L50.2304 12.1888L41.4745 3.55109L42.9023 9.76862L43.3121 9.94023L42.9331 10.3583ZM22.5396 27.4752L22.0548 26.5951L30.0219 22.2389L30.5066 23.1233L22.544 27.4796L22.5396 27.4752ZM33.0801 18.8023H32.0709L32.093 9.75102H33.1021L33.0801 18.8023Z" fill="#010920"/>
<path id="Vector_2" d="M50.9971 10.3627C52.0194 10.3627 52.8479 11.1855 52.8479 12.2064C52.8479 13.2272 52.0238 14.0545 51.0015 14.0545C49.9792 14.0545 49.1507 13.2316 49.1507 12.2108C49.1507 11.1899 49.9748 10.3627 50.9971 10.3627ZM38.7733 1.98462C38.7733 3.00547 39.5973 3.83271 40.6197 3.83271C41.642 3.83271 42.4704 3.00987 42.4704 1.98902C42.4704 0.968162 41.6464 0.140917 40.6241 0.140917C40.6241 0.140917 40.6196 0.140917 40.6152 0.140917C39.5973 0.136517 38.7645 0.954961 38.7601 1.97582L38.7689 1.98462H38.7733ZM20.4068 10.8951C20.4068 11.9159 21.2352 12.7432 22.2575 12.7432C23.2798 12.7432 24.1083 11.9159 24.1083 10.8951C24.1083 9.87424 23.2798 9.04699 22.2575 9.04699C21.2352 9.04259 20.4024 9.86544 20.3979 10.8819L20.4068 10.8907V10.8951ZM53.3943 31.4002C53.3943 32.4166 54.2227 33.2439 55.245 33.2395C56.2629 33.2395 57.0914 32.4122 57.087 31.3914C57.087 30.3749 56.2585 29.5521 55.2406 29.5521C54.2227 29.5477 53.3899 30.3661 53.3855 31.387C53.3855 31.387 53.3855 31.3914 53.3855 31.3958L53.3943 31.4046V31.4002ZM44.5679 48.2751C44.5679 49.2255 45.3347 49.9956 46.2865 50C47.2383 50.0044 48.0094 49.2343 48.0139 48.2839C48.0183 47.3334 47.2471 46.5634 46.2953 46.559H46.2865C45.3391 46.5546 44.5635 47.3158 44.5591 48.2663L44.5679 48.2751Z" fill="#00A2EA"/>
<path id="Vector_3" d="M19.0187 27.0747C19.9705 27.0747 20.7417 27.8448 20.7417 28.7952C20.7417 29.7457 19.9705 30.5157 19.0187 30.5157C18.0669 30.5157 17.2957 29.7457 17.2957 28.7952C17.2957 27.8448 18.0669 27.0747 19.0187 27.0747ZM30.89 6.04602C30.89 6.99647 31.6611 7.76651 32.6129 7.76651C33.5648 7.76651 34.3359 6.99647 34.3359 6.04602C34.3359 5.09557 33.5648 4.32553 32.6129 4.32553C31.6611 4.32553 30.89 5.09557 30.89 6.04602ZM31.3659 21.4028C31.3659 22.0761 31.9079 22.6261 32.5865 22.6261C33.2607 22.6261 33.8115 22.0849 33.8115 21.4072C33.8115 20.734 33.2695 20.184 32.5909 20.184C32.5909 20.184 32.5865 20.184 32.5821 20.184C31.9079 20.184 31.3659 20.7296 31.3615 21.4028H31.3659ZM45.2906 35.796C45.2906 36.4692 45.8326 37.0193 46.5112 37.0193C47.1854 37.0193 47.7363 36.478 47.7363 35.8004C47.7363 35.1228 47.1942 34.5771 46.5156 34.5771C45.8414 34.5771 45.295 35.1228 45.295 35.796H45.2906ZM10.1439 9.05138C10.1439 9.72462 10.6903 10.2702 11.3645 10.2702C12.0387 10.2702 12.5851 9.72462 12.5851 9.05138C12.5851 8.37815 12.0387 7.83252 11.3645 7.83252C10.6903 7.83252 10.1439 8.37375 10.1439 9.04698C10.1439 9.04698 10.1439 9.05138 10.1439 9.05578V9.05138ZM15.3216 15.1721C15.3216 15.7925 15.8284 16.2898 16.4453 16.2898C17.0666 16.2898 17.5645 15.7837 17.5645 15.1677C17.5645 14.5517 17.0622 14.05 16.4453 14.05C15.8284 14.05 15.326 14.5517 15.326 15.1677L15.3216 15.1721ZM24.051 19.3083C24.051 19.9288 24.5489 20.4348 25.1703 20.4348C25.7916 20.4348 26.2983 19.9376 26.2983 19.3171C26.2983 18.6967 25.8004 18.1907 25.1791 18.1907C24.5666 18.1995 24.0774 18.6923 24.073 19.3039L24.0554 19.3127L24.051 19.3083ZM0 22.6525C0 23.2729 0.506754 23.7702 1.12367 23.7702C1.745 23.7702 2.24294 23.2641 2.24294 22.6481C2.24294 22.0321 1.74059 21.5304 1.12367 21.5304C0.506754 21.5304 0.00440582 22.0321 0.00440582 22.6481L0 22.6525ZM22.967 37.2129C22.967 37.8333 23.4649 38.3393 24.0863 38.3393C24.7076 38.3393 25.2143 37.8421 25.2143 37.2217C25.2143 36.6012 24.7164 36.0952 24.0951 36.0952C23.4781 36.0952 22.9758 36.5881 22.9714 37.1997V37.2129H22.967ZM36.2792 33.5915C36.2792 34.2119 36.7816 34.7092 37.3985 34.7092C38.0198 34.7092 38.5177 34.2075 38.5177 33.5915C38.5177 32.9755 38.0154 32.4738 37.3985 32.4738C36.7816 32.4738 36.2836 32.9667 36.2792 33.5783V33.5915ZM43.907 42.5196C43.907 43.14 44.4137 43.6372 45.0306 43.6372C45.652 43.6372 46.1499 43.1312 46.1499 42.5152C46.1499 41.8991 45.6475 41.3975 45.0306 41.3975C44.4137 41.3975 43.9158 41.8947 43.9114 42.5064V42.5196H43.907ZM52.2618 42.0487C52.2618 42.6692 52.7641 43.1708 53.3855 43.1708C54.0068 43.1708 54.5091 42.6692 54.5091 42.0487C54.5091 41.4283 54.0068 40.9267 53.3855 40.9267C52.7685 40.9267 52.2662 41.4195 52.2618 42.0355V42.0487ZM60.3699 30.2781C60.3699 30.8985 60.8722 31.3958 61.4891 31.3958C62.1105 31.3958 62.6084 30.8941 62.6084 30.2781C62.6084 29.6621 62.106 29.1605 61.4891 29.1605C60.8766 29.1605 60.3743 29.6533 60.3699 30.2649V30.2781ZM47.3397 23.9902C47.3397 24.6106 47.842 25.1078 48.4589 25.1078C49.0803 25.1078 49.5782 24.6062 49.5782 23.9902C49.5782 23.3741 49.0758 22.8725 48.4589 22.8725C47.842 22.8725 47.3397 23.3697 47.3397 23.9858C47.3397 23.9858 47.3397 23.9902 47.3397 23.9946V23.9902ZM44.2859 17.1038C44.2859 17.7242 44.7883 18.2215 45.4052 18.2215C46.0265 18.2215 46.5244 17.7198 46.5244 17.1038C46.5244 16.4878 46.0221 15.9862 45.4052 15.9862C44.7839 15.9862 44.2859 16.4878 44.2859 17.1038Z" fill="#00A2EA"/>
<path id="Vector_4" d="M58.594 17.6054C59.2726 17.6054 59.8279 18.1555 59.8279 18.8375C59.8279 19.5195 59.277 20.0696 58.594 20.0696C57.9154 20.0696 57.3602 19.5195 57.3602 18.8375C57.3602 18.1599 57.9066 17.6098 58.5852 17.6054C58.5852 17.6054 58.5896 17.6054 58.594 17.6054ZM41.263 10.1294C41.263 10.8071 41.8139 11.3615 42.4969 11.3615C43.1755 11.3615 43.7307 10.8115 43.7307 10.1294C43.7307 9.44741 43.1799 8.89738 42.4969 8.89738C41.8183 8.89738 41.2674 9.44741 41.2674 10.1294H41.263ZM22.8833 1.23217C22.8833 1.90981 23.4341 2.46424 24.1171 2.46424C24.8001 2.46424 25.351 1.91421 25.351 1.23217C25.351 0.550134 24.7957 0.000104977 24.1171 0.000104977C23.4385 -0.00869549 22.8789 0.536934 22.8701 1.21897C22.8701 1.22337 22.8701 1.22777 22.8701 1.23217H22.8833Z" fill="#00A2EA"/>
<path id="Vector_5" d="M40.038 23.2157C41.0603 23.2157 41.8888 24.0386 41.8888 25.0594C41.8888 26.0803 41.0647 26.9075 40.0424 26.9075C39.0201 26.9075 38.1917 26.0847 38.1917 25.0638V25.055C38.1917 24.0386 39.0201 23.2113 40.038 23.2113V23.2157ZM6.92712 21.416C6.92712 22.4369 7.75556 23.2641 8.77788 23.2641C9.8002 23.2641 10.6286 22.4369 10.6286 21.416C10.6286 20.3952 9.8002 19.5679 8.77788 19.5679C7.75997 19.5679 6.93153 20.3952 6.93153 21.4116L6.92712 21.416Z" fill="#00A2EA"/>
<path id="Vector_6" d="M29.9999 29.0197C30.6785 29.0197 31.2337 29.5697 31.2337 30.2517C31.2337 30.9294 30.6829 31.4838 29.9999 31.4838C29.3168 31.4838 28.766 30.9338 28.766 30.2517C28.766 29.5697 29.3168 29.0197 29.9955 29.0197H29.9999ZM8.02876 31.2286C8.70737 31.2286 9.26259 31.7786 9.26259 32.4606C9.26259 33.1427 8.71177 33.6927 8.02876 33.6927C7.34574 33.6927 6.79492 33.1427 6.79492 32.4606C6.79492 31.783 7.34133 31.233 8.01994 31.2286C8.01994 31.2286 8.02435 31.2286 8.02876 31.2286Z" fill="#00A2EA"/>
</g>
<path id="Vector_7" d="M84.7448 34.8461L83.6387 31.9639H76.8923L75.7862 34.8461H72.7281L78.6681 19.63H81.8585L87.7985 34.8461H84.7448ZM77.8309 29.5174H82.7001L80.2501 23.115L77.8353 29.5174H77.8309ZM103.107 28.0081C103.107 31.7615 101.631 33.9748 98.5065 34.7449L101.798 36.857L100.084 38.9691L93.8752 34.9781C89.9798 34.5072 88.1026 32.1619 88.1026 28.0081V26.3668C88.1026 21.707 90.4865 19.3968 95.5893 19.3968C100.692 19.3968 103.076 21.7114 103.076 26.3668V28.0081H103.111H103.107ZM99.8152 26.4988C99.8152 23.4143 98.4051 22.2086 95.6202 22.2086C92.8352 22.2086 91.4251 23.4143 91.4251 26.4988V27.9069C91.4251 31.0575 92.8352 32.2631 95.6202 32.2631C98.4051 32.2631 99.8152 31.0575 99.8152 27.9069V26.4988ZM106.024 22.4418V19.6256H117.569V22.4418H106.024ZM106.024 28.4745V25.9576H116.26V28.4701H106.024V28.4745ZM117.569 31.9991V34.8153H106.024V31.9947H117.569V31.9991ZM123.377 31.9991H130.829V34.8153H120.253V19.63H123.373V31.9991H123.377ZM141.404 19.63V22.4462H136.535V34.8153H133.38V22.4462H128.511V19.63H141.4H141.404ZM155.303 22.4462H146.877V25.9312H153.994V28.4437H146.877V31.9639H155.303V34.7801H143.757V19.5904H155.303V22.4418V22.4462ZM156.946 27.9773V26.3668C156.946 21.6762 159.264 19.3264 164.23 19.3264C169.196 19.3264 171.479 21.3373 171.479 25.2932V25.4604H168.289V25.2888C168.253 22.9434 166.879 22.0018 164.226 22.0018C161.573 22.0018 160.132 23.2074 160.132 26.3272V27.9685C160.132 31.1851 161.507 32.3951 164.226 32.3951C166.945 32.3951 168.289 31.4887 168.289 29.0774V28.9453H171.479V29.0774C171.479 33.0332 169.064 35.0793 164.23 35.0793C159.295 35.1145 156.946 32.7691 156.946 27.9729V27.9773ZM184.606 19.6344H187.761V34.8197H184.593V28.7869H177.375V34.8197H174.255V19.6344H177.375V25.9664H184.593L184.606 19.6344Z" fill="#010920"/>
</g>
</svg>
