<svg width="122" height="34" viewBox="0 0 122 34" fill="none" xmlns="http://www.w3.org/2000/svg">
<g id="Logo #7">
<path id="Fill 2" fill-rule="evenodd" clip-rule="evenodd" d="M1.4366 30.5589C2.5931 32.5757 4.66538 33.7797 6.97992 33.7797H6.97995C9.60473 33.7797 12.0517 32.3599 13.3658 30.0744L16.4405 24.7271H1.131C0.292446 26.6064 0.394258 28.7412 1.4366 30.5589Z" fill="#C2D1D9"/>
<path id="Fill 3" fill-rule="evenodd" clip-rule="evenodd" d="M27.1222 30.0694C28.4358 32.358 30.8838 33.7797 33.511 33.7797H33.5125C35.8272 33.7797 37.9001 32.5759 39.0575 30.5594C40.1005 28.7422 40.2035 26.6071 39.3666 24.7271H24.0559L27.1222 30.0694Z" fill="#C2D1D9"/>
<path id="Fill 4" fill-rule="evenodd" clip-rule="evenodd" d="M38.0096 22.2934L32.5117 12.7173H7.98654L2.48865 22.2934H38.0096Z" fill="#C2D1D9"/>
<path id="Fill 5" fill-rule="evenodd" clip-rule="evenodd" d="M20.5472 0.841797H19.9629C16.7834 0.841797 13.8205 2.56225 12.2304 5.33172L9.38464 10.2839H31.1168L28.2791 5.33074C26.6895 2.56225 23.7266 0.841797 20.5472 0.841797Z" fill="#C2D1D9"/>
<path id="Fill 6" fill-rule="evenodd" clip-rule="evenodd" d="M49.9199 21.0021C49.9199 19.0883 50.762 17.6764 52.3527 17.049C53.0701 16.7666 54.3176 16.6097 56.0954 16.6097H57.0311C57.8109 16.6097 58.497 16.6411 59.1208 16.7039V14.9155C59.1208 12.6253 57.9668 11.8409 55.3469 11.8409C54.2552 11.8409 53.1948 11.9978 52.1344 12.3115C51.6665 12.437 51.417 12.437 51.3235 12.0605L51.1675 11.4017C51.0427 11.0252 51.1363 10.8056 51.5106 10.7115C52.8517 10.3036 54.1929 10.084 55.5028 10.084C59.4951 10.084 61.1481 11.4331 61.1481 14.6959V25.4258C61.1481 25.6768 61.0857 25.7395 60.805 25.7395H59.7758C59.4951 25.7395 59.3703 25.6454 59.3703 25.4258L59.3079 24.3591H59.2455C58.5594 25.4571 57.4678 26.0219 55.9395 26.0219H54.38C53.0077 26.0219 51.7601 25.614 51.0427 24.8924C50.2942 24.1395 49.9199 23.1669 49.9199 21.9433V21.0021ZM51.9784 21.6923C51.9784 22.6649 52.1968 23.3237 52.6334 23.7316C53.0389 24.1081 53.6627 24.2963 54.536 24.2963H55.8147C57.9044 24.2963 59.1208 23.1669 59.1208 21.0335V18.4294C58.6218 18.3667 57.998 18.3353 57.2494 18.3353H55.5028C54.1929 18.3353 53.2884 18.5549 52.7582 18.9628C52.2279 19.3706 51.9784 20.0608 51.9784 21.0335V21.6923Z" fill="#C2D1D9"/>
<path id="Fill 7" fill-rule="evenodd" clip-rule="evenodd" d="M65.3895 4.84465C65.3895 4.62504 65.5143 4.49951 65.7638 4.49951H67.0426C67.2921 4.49951 67.4168 4.62504 67.4168 4.84465V21.6296C67.4168 22.7591 67.448 23.1356 67.6975 23.6062C67.8535 23.8258 68.2278 23.9513 68.8203 23.9513H69.6625C69.8496 23.9513 70.0368 23.9826 70.0368 24.2964V25.3631C70.0368 25.6141 69.9432 25.7396 69.7248 25.7396H68.5396C67.4168 25.7396 66.6059 25.4886 66.1381 25.018C65.639 24.4846 65.3895 23.5121 65.3895 22.1316V4.84465Z" fill="#C2D1D9"/>
<path id="Fill 8" fill-rule="evenodd" clip-rule="evenodd" d="M73.0931 6.22508C73.0931 5.22112 73.6546 4.75049 74.5279 4.75049H74.6526C75.5571 4.75049 76.025 5.25247 76.025 6.22508V6.41331C76.025 7.41727 75.4948 7.91925 74.6526 7.91925H74.5279C73.4986 7.91925 73.0931 7.44865 73.0931 6.41331V6.22508ZM73.561 10.7115C73.561 10.4919 73.6858 10.3664 73.9353 10.3664H75.2141C75.4636 10.3664 75.5883 10.4919 75.5883 10.7115V25.4886C75.5883 25.6455 75.4948 25.7396 75.3076 25.7396H73.8105C73.6546 25.7396 73.561 25.6455 73.561 25.4886V10.7115Z" fill="#C2D1D9"/>
<path id="Fill 9" fill-rule="evenodd" clip-rule="evenodd" d="M79.549 17.4882C79.549 11.935 81.3891 10.084 85.5373 10.084C87.5335 10.084 88.937 10.7115 89.7791 11.9664H89.8415L89.9974 10.7428C90.0286 10.4918 90.1845 10.3664 90.4652 10.3664H91.2138C91.5569 10.3664 91.6505 10.4291 91.6505 10.7742V30.9476C91.6505 31.1672 91.5569 31.2927 91.3385 31.2927H89.935C89.7167 31.2927 89.6231 31.1672 89.6231 30.9476V24.3591H89.5608C88.6874 25.4571 87.3151 26.0219 85.4437 26.0219C81.202 26.0219 79.549 23.9825 79.549 18.9628V17.4882ZM81.6075 18.8059C81.6075 20.9393 81.9505 22.4139 82.6367 23.1982C83.2917 23.9512 84.165 24.265 85.6933 24.265C88.1884 24.265 89.6231 22.9786 89.6231 20.5001V15.8568C89.6231 13.3155 88.1884 11.8409 85.5685 11.8409C84.1962 11.8409 83.3853 12.1233 82.7615 12.7821C81.9817 13.6292 81.6075 15.292 81.6075 17.7705V18.8059Z" fill="#C2D1D9"/>
<path id="Fill 10" fill-rule="evenodd" clip-rule="evenodd" d="M95.7048 10.8682C95.7048 10.5858 95.892 10.3662 96.1415 10.3662H97.2955C97.5762 10.3662 97.7322 10.5231 97.7322 10.8054V21.0647C97.7322 22.3196 97.9504 23.0099 98.543 23.5118C99.0733 24.0138 100.009 24.2648 101.35 24.2648C102.629 24.2648 103.596 23.9824 104.219 23.3863C104.75 22.8844 104.937 22.3196 104.937 21.0647V10.774C104.937 10.5231 105.093 10.3662 105.311 10.3662H106.621C106.839 10.3662 106.964 10.4917 106.964 10.774V21.3157C106.964 22.9157 106.496 24.1079 105.592 24.8923C104.687 25.6766 103.471 26.0217 101.35 26.0217C99.4164 26.0217 98.0128 25.6453 97.1083 24.8923C96.1726 24.1079 95.7048 22.9157 95.7048 21.3157V10.8682Z" fill="#C2D1D9"/>
<path id="Fill 11" fill-rule="evenodd" clip-rule="evenodd" d="M110.208 21.0021C110.208 19.0883 111.05 17.6764 112.641 17.049C113.358 16.7666 114.605 16.6097 116.383 16.6097H117.319C118.099 16.6097 118.785 16.6411 119.409 16.7039V14.9155C119.409 12.6253 118.255 11.8409 115.635 11.8409C114.543 11.8409 113.483 11.9978 112.422 12.3115C111.954 12.437 111.705 12.437 111.611 12.0605L111.455 11.4017C111.331 11.0252 111.424 10.8056 111.798 10.7115C113.14 10.3036 114.481 10.084 115.791 10.084C119.783 10.084 121.436 11.4331 121.436 14.6959V25.4258C121.436 25.6768 121.374 25.7395 121.093 25.7395H120.064C119.783 25.7395 119.658 25.6454 119.658 25.4258L119.596 24.3591H119.533C118.847 25.4571 117.756 26.0219 116.227 26.0219H114.668C113.296 26.0219 112.048 25.614 111.331 24.8924C110.582 24.1395 110.208 23.1669 110.208 21.9433V21.0021ZM112.266 21.6923C112.266 22.6649 112.485 23.3237 112.921 23.7316C113.327 24.1081 113.95 24.2963 114.824 24.2963H116.103C118.192 24.2963 119.409 23.1669 119.409 21.0335V18.4294C118.91 18.3667 118.286 18.3353 117.537 18.3353H115.791C114.481 18.3353 113.576 18.5549 113.046 18.9628C112.516 19.3706 112.266 20.0608 112.266 21.0335V21.6923Z" fill="#C2D1D9"/>
</g>
</svg>
