<svg width="43" height="42" viewBox="0 0 43 42" fill="none" xmlns="http://www.w3.org/2000/svg">
<path id="Vector" d="M1.5 1.65991H8.77273L13.6455 25.8894C13.8117 26.7225 14.2671 27.4709 14.9319 28.0035C15.5967 28.5361 16.4285 28.819 17.2818 28.8028H34.9545C35.8078 28.819 36.6397 28.5361 37.3045 28.0035C37.9693 27.4709 38.4246 26.7225 38.5909 25.8894L41.5 10.7075H10.5909M17.8636 37.8504C17.8636 38.8498 17.0496 39.6599 16.0455 39.6599C15.0413 39.6599 14.2273 38.8498 14.2273 37.8504C14.2273 36.851 15.0413 36.0409 16.0455 36.0409C17.0496 36.0409 17.8636 36.851 17.8636 37.8504ZM37.8636 37.8504C37.8636 38.8498 37.0496 39.6599 36.0455 39.6599C35.0413 39.6599 34.2273 38.8498 34.2273 37.8504C34.2273 36.851 35.0413 36.0409 36.0455 36.0409C37.0496 36.0409 37.8636 36.851 37.8636 37.8504Z" stroke="#F26322" stroke-width="3" stroke-linecap="round" stroke-linejoin="round"/>
</svg>
