<svg width="52" height="45" viewBox="0 0 52 45" fill="none" xmlns="http://www.w3.org/2000/svg">
<g id="icon">
<path id="bg (Stroke)" fill-rule="evenodd" clip-rule="evenodd" d="M34.5719 5.98515L10.8165 22.6189C9.91168 23.2524 9.69178 24.4995 10.3253 25.4043L19.5026 38.5108C20.1361 39.4156 21.3832 39.6355 22.288 39.0019L46.0434 22.3682C46.9482 21.7346 47.1681 20.4875 46.5346 19.5827L37.3574 6.4763C36.7238 5.57149 35.4767 5.3516 34.5719 5.98515ZM9.09576 20.1614C6.83373 21.7453 6.28399 24.863 7.86788 27.1251L17.0451 40.2315C18.629 42.4935 21.7467 43.0433 24.0087 41.4594L47.7642 24.8257C50.0262 23.2418 50.5759 20.124 48.992 17.862L39.8148 4.75558C38.2309 2.49355 35.1132 1.94381 32.8512 3.5277L9.09576 20.1614Z" fill="#FF7915"/>
<g id="Group 3">
<path id="bg" d="M0 21.6599C0 18.8985 2.23858 16.6599 5 16.6599H34C36.7614 16.6599 39 18.8985 39 21.6599V37.6599C39 40.4213 36.7614 42.6599 34 42.6599H5C2.23858 42.6599 0 40.4213 0 37.6599V21.6599Z" fill="white"/>
<path id="bg (Stroke)_2" fill-rule="evenodd" clip-rule="evenodd" d="M34 19.6599H5C3.89543 19.6599 3 20.5553 3 21.6599V37.6599C3 38.7645 3.89543 39.6599 5 39.6599H34C35.1046 39.6599 36 38.7645 36 37.6599V21.6599C36 20.5553 35.1046 19.6599 34 19.6599ZM5 16.6599C2.23858 16.6599 0 18.8985 0 21.6599V37.6599C0 40.4213 2.23858 42.6599 5 42.6599H34C36.7614 42.6599 39 40.4213 39 37.6599V21.6599C39 18.8985 36.7614 16.6599 34 16.6599H5Z" fill="#004583"/>
</g>
<path id="bg (Stroke)_3" fill-rule="evenodd" clip-rule="evenodd" d="M11.5 25.1599H6.5V30.1599H11.5V25.1599ZM6.5 23.6599C5.67157 23.6599 5 24.3315 5 25.1599V30.1599C5 30.9883 5.67157 31.6599 6.5 31.6599H11.5C12.3284 31.6599 13 30.9883 13 30.1599V25.1599C13 24.3315 12.3284 23.6599 11.5 23.6599H6.5Z" fill="#FF7915"/>
<path id="Vector 6 (Stroke)" fill-rule="evenodd" clip-rule="evenodd" d="M4.75 36.1599C4.75 35.7457 5.08579 35.4099 5.5 35.4099H34C34.4142 35.4099 34.75 35.7457 34.75 36.1599C34.75 36.5741 34.4142 36.9099 34 36.9099H5.5C5.08579 36.9099 4.75 36.5741 4.75 36.1599Z" fill="#FF7915"/>
</g>
</svg>
