<svg width="46" height="40" viewBox="0 0 46 40" fill="none" xmlns="http://www.w3.org/2000/svg">
<g id="Vector">
<path fill-rule="evenodd" clip-rule="evenodd" d="M0 3C0 1.34314 1.34314 0 3 0H43C44.6569 0 46 1.34314 46 3V37C46 38.6569 44.6569 40 43 40H3C1.34314 40 0 38.6569 0 37V3ZM3 7H43V38H3V7ZM33 4C33 5.10461 32.1046 6 31 6C29.8954 6 29 5.10461 29 4C29 2.89539 29.8954 2 31 2C32.1046 2 33 2.89539 33 4ZM38 4C38 5.10461 37.1046 6 36 6C34.8954 6 34 5.10461 34 4C34 2.89539 34.8954 2 36 2C37.1046 2 38 2.89539 38 4ZM41 6C42.1046 6 43 5.10461 43 4C43 2.89539 42.1046 2 41 2C39.8954 2 39 2.89539 39 4C39 5.10461 39.8954 6 41 6Z" fill="white"/>
<path fill-rule="evenodd" clip-rule="evenodd" d="M20.118 16.441C20.4268 17.0585 20.1765 17.8093 19.559 18.1181L12.7951 21.5L19.559 24.882C20.1765 25.1907 20.4268 25.9416 20.118 26.559C19.8093 27.1765 19.0585 27.4268 18.441 27.1181L9.44098 22.6181V20.382L18.441 15.882C19.0585 15.5733 19.8093 15.8235 20.118 16.441Z" fill="white"/>
<path fill-rule="evenodd" clip-rule="evenodd" d="M25.3221 12.7921C25.9891 12.97 26.3857 13.655 26.2078 14.322L22.2078 29.322C22.0299 29.9891 21.345 30.3856 20.6779 30.2077C20.0109 30.0299 19.6143 29.3449 19.7922 28.6779L23.7922 13.6779C23.9701 13.0108 24.655 12.6143 25.3221 12.7921Z" fill="white"/>
<path fill-rule="evenodd" clip-rule="evenodd" d="M25.882 26.559C25.5732 25.9415 25.8235 25.1907 26.441 24.8819L33.2049 21.5L26.441 18.118C25.8235 17.8093 25.5732 17.0584 25.882 16.441C26.1907 15.8235 26.9415 15.5732 27.559 15.8819L36.559 20.3819V22.618L27.559 27.118C26.9415 27.4267 26.1907 27.1765 25.882 26.559Z" fill="white"/>
</g>
</svg>
