<svg width="41" height="43" viewBox="0 0 41 43" fill="none" xmlns="http://www.w3.org/2000/svg">
<g id="icon">
<path id="Vector 3" d="M36 37.5H5V25V24L11 30L36 5.5V37.5Z" fill="white"/>
<path id="Vector 4" d="M32 15H25M32 21H19.5M32 27H14M32 33H9" stroke="#00A2EA" stroke-width="3"/>
<path id="Vector 1" d="M0 40V20.5L5 25.5V37.5H36V6.5L41 2.5V40C41 41.6568 39.6569 43 38 43H3C1.34315 43 0 41.6568 0 40Z" fill="#00A2EA"/>
<path id="Vector 2" d="M11 31.5L0 20.5L5 18.5L11 24.5L37 0.5L41 2.5L11 31.5Z" fill="#ED5106"/>
</g>
</svg>
