<svg width="150" height="48" viewBox="0 0 150 48" fill="none" xmlns="http://www.w3.org/2000/svg">
<g id="Logo #3">
<path id="Fill 1" fill-rule="evenodd" clip-rule="evenodd" d="M0 46.4737V3.19798H26.4028V12.7005H11.4534V20.2049H25.5474V29.4667H11.4534V46.4737H0ZM30.3184 46.4737V16.6342H40.2159V23.6656C41.2408 21.0929 42.6272 19.1758 44.3939 17.8957C46.1626 16.6135 48.3033 15.9682 50.8138 15.9682C51.2271 15.9682 51.6486 15.9786 52.0701 16.0076C52.4916 16.0388 52.9131 16.0906 53.3471 16.1508L52.3222 25.7135C51.7002 25.5018 51.0762 25.3504 50.4729 25.2508C49.8613 25.1574 49.2786 25.1076 48.7062 25.1076C46.1626 25.1076 44.2059 25.894 42.8173 27.4583C41.4412 29.0227 40.749 31.2407 40.749 34.1163V46.4737H30.3184ZM75.8818 27.7115C75.6793 26.0164 75.0367 24.6532 73.9519 23.6242C72.8568 22.5971 71.5199 22.0805 69.9227 22.0805C68.216 22.0805 66.8502 22.5453 65.8335 23.4851C64.8293 24.4229 64.1557 25.8359 63.8148 27.7115H75.8818ZM86.1884 33.6412H63.5834C63.604 35.9442 64.195 37.7181 65.3521 38.9692C66.5175 40.2182 68.154 40.8448 70.274 40.8448C71.8712 40.8448 73.2081 40.544 74.3032 39.9485C75.388 39.3427 76.2228 38.4547 76.7951 37.2741L84.68 40.463C83.7357 42.7515 82.0703 44.5172 79.6796 45.7579C77.2766 46.9986 74.3425 47.6252 70.867 47.6252C65.6848 47.6252 61.5233 46.1811 58.3991 43.2972C55.2646 40.4008 53.6983 36.5977 53.6983 31.8672C53.6983 27.2177 55.2646 23.3524 58.3888 20.2755C61.5233 17.1986 65.4823 15.6653 70.2636 15.6653C75.1876 15.6653 79.0763 17.2193 81.9195 20.3356C84.7627 23.454 86.1884 27.7218 86.1884 33.137V33.6412ZM87.6245 43.9943L89.8044 35.9442C91.3417 37.2845 93.0216 38.3115 94.8564 39.0397C96.6975 39.7555 98.5447 40.1207 100.404 40.1207C101.721 40.1207 102.725 39.907 103.409 39.4837C104.101 39.0605 104.442 38.4443 104.442 37.6372C104.442 36.3176 103.055 35.328 100.282 34.6723C99.3795 34.4607 98.646 34.2678 98.1026 34.1163C94.9577 33.249 92.6869 32.11 91.2611 30.6971C89.8437 29.2945 89.1308 27.4583 89.1308 25.2197C89.1308 22.315 90.2156 20.0037 92.3872 18.2692C94.5568 16.5326 97.4909 15.6653 101.198 15.6653C103.105 15.6653 105.045 15.8873 107.014 16.3313C108.981 16.7774 111.004 17.4621 113.062 18.3895L110.882 25.6533C109.496 24.7051 108.081 23.9769 106.64 23.4851C105.206 22.9893 103.781 22.7465 102.343 22.7465C101.146 22.7465 100.243 22.9395 99.6316 23.3129C99.0179 23.6864 98.7142 24.23 98.7142 24.9354C98.7142 25.9956 100.09 26.894 102.843 27.6305C103.477 27.8007 103.95 27.9335 104.262 28.0144C107.888 29.0538 110.411 30.2821 111.835 31.6847C113.255 33.0997 113.965 35.0064 113.965 37.4048C113.965 40.4527 112.802 42.9237 110.461 44.7993C108.13 46.6874 105.035 47.6252 101.198 47.6252C98.584 47.6252 96.1623 47.3223 93.9225 46.7268C91.6826 46.121 89.5833 45.2143 87.6245 43.9943ZM117.753 46.4737V0.654297H128.061V16.7359C128.061 17.794 128.03 18.7837 127.973 19.6904C127.911 20.5991 127.83 21.4166 127.71 22.1428C129.024 19.9124 130.572 18.2795 132.351 17.2297C134.14 16.1902 136.271 15.6653 138.732 15.6653C140.66 15.6653 142.366 15.9786 143.864 16.5948C145.362 17.2193 146.586 18.1073 147.524 19.2775C148.315 20.2755 148.869 21.5058 149.199 22.9395C149.53 24.3814 149.702 26.5309 149.702 29.3858V46.4737H139.213V30.4854C139.213 28.0953 138.823 26.3691 138.048 25.2798C137.275 24.2009 136.037 23.6553 134.331 23.6553C132.151 23.6553 130.564 24.4624 129.557 26.0765C128.564 27.6907 128.061 30.3132 128.061 33.9462V46.4737H117.753Z" fill="#C2D1D9"/>
<path id="Fill 2" fill-rule="evenodd" clip-rule="evenodd" d="M71.0116 11.4847C74.0242 5.77908 78.2601 3.59849 85.6243 3.73127C82.527 11.7607 78.194 14.7483 69.6169 14.5927C68.654 11.6113 66.9431 9.03025 64.0875 7.06129C64.7963 5.98241 65.505 4.90352 66.2158 3.82256C68.7738 6.23345 70.2037 8.8124 71.0116 11.4847Z" fill="#C2D1D9"/>
</g>
</svg>
