<svg width="75" height="62" viewBox="0 0 75 62" fill="none" xmlns="http://www.w3.org/2000/svg">
<g id="icon">
<rect id="background copy" width="75" height="62" rx="4" fill="white"/>
<path id="Border Copy" fill-rule="evenodd" clip-rule="evenodd" d="M70.5882 0H4.41176C1.97521 0 0 1.98274 0 4.42857V57.5714C0 60.0173 1.97521 62 4.41176 62H70.5882C73.0248 62 75 60.0173 75 57.5714V4.42857C75 1.98274 73.0248 0 70.5882 0ZM4.41176 57.5714V4.42857H70.5882V57.5714H4.41176Z" fill="#C2D1D9"/>
<path id="Oval 2" fill-rule="evenodd" clip-rule="evenodd" d="M12.1324 18.2679C12.1324 22.8539 15.8359 26.5715 20.4044 26.5715C24.9729 26.5715 28.6765 22.8539 28.6765 18.2679C28.6765 13.682 24.9729 9.96436 20.4044 9.96436C15.8359 9.96436 12.1324 13.682 12.1324 18.2679ZM24.2647 18.2679C24.2647 20.408 22.5364 22.1429 20.4044 22.1429C18.2724 22.1429 16.5441 20.408 16.5441 18.2679C16.5441 16.1278 18.2724 14.3929 20.4044 14.3929C22.5364 14.3929 24.2647 16.1278 24.2647 18.2679Z" fill="#C2D1D9"/>
<path id="Path 4" d="M15.8913 52.5013C15.0261 53.3623 13.6294 53.3562 12.7717 52.4877C11.914 51.6193 11.92 50.2173 12.7852 49.3563L30.9279 31.3013L41.1536 40.2295C42.0728 41.0321 42.1698 42.4307 41.3703 43.3534C40.5707 44.2761 39.1774 44.3735 38.2582 43.5709L31.1241 37.342L15.8913 52.5013Z" fill="#C2D1D9"/>
<path id="Path 4_2" d="M32.4422 52.4942C31.5808 53.3589 30.1841 53.359 29.3226 52.4943C28.4611 51.6296 28.4611 50.2276 29.3225 49.3628L58.3548 20.2173L74.249 34.2164C75.1647 35.023 75.2557 36.422 74.4522 37.3413C73.6487 38.2605 72.255 38.3518 71.3392 37.5453L58.552 26.2826L32.4422 52.4942Z" fill="#C2D1D9"/>
</g>
</svg>
