<svg width="86" height="10" viewBox="0 0 86 10" fill="none" xmlns="http://www.w3.org/2000/svg">
<g id="indicators">
<g id="indicators_2">
<path id="#4" fill-rule="evenodd" clip-rule="evenodd" d="M76 5C76 7.76142 78.2386 10 81 10C83.7614 10 86 7.76142 86 5C86 2.23858 83.7614 0 81 0C78.2386 0 76 2.23858 76 5ZM84 5C84 6.65685 82.6569 8 81 8C79.3431 8 78 6.65685 78 5C78 3.34315 79.3431 2 81 2C82.6569 2 84 3.34315 84 5Z" fill="#C2D1D9"/>
<path id="#3" fill-rule="evenodd" clip-rule="evenodd" d="M50 5C50 7.76142 52.2386 10 55 10C57.7614 10 60 7.76142 60 5C60 2.23858 57.7614 0 55 0C52.2386 0 50 2.23858 50 5ZM58 5C58 6.65685 56.6569 8 55 8C53.3431 8 52 6.65685 52 5C52 3.34315 53.3431 2 55 2C56.6569 2 58 3.34315 58 5Z" fill="#C2D1D9"/>
<path id="active" fill-rule="evenodd" clip-rule="evenodd" d="M30 9C32.2091 9 34 7.20914 34 5C34 2.79086 32.2091 1 30 1C27.7909 1 26 2.79086 26 5C26 7.20914 27.7909 9 30 9Z" fill="#424B5A"/>
<path id="#1" fill-rule="evenodd" clip-rule="evenodd" d="M0 5C0 7.76142 2.23858 10 5 10C7.76142 10 10 7.76142 10 5C10 2.23858 7.76142 0 5 0C2.23858 0 0 2.23858 0 5ZM8 5C8 6.65685 6.65685 8 5 8C3.34315 8 2 6.65685 2 5C2 3.34315 3.34315 2 5 2C6.65685 2 8 3.34315 8 5Z" fill="#C2D1D9"/>
</g>
</g>
</svg>
