<svg width="130" height="50" viewBox="0 0 130 50" fill="none" xmlns="http://www.w3.org/2000/svg">
<g id="Logo #8">
<path id="Combined Shape" fill-rule="evenodd" clip-rule="evenodd" d="M3.26429 38.9456L19.9853 48.6565C21.6008 49.5948 23.5912 49.5948 25.2068 48.6565L41.9278 38.9456C43.5433 38.0073 44.5385 36.2734 44.5385 34.3969V14.975C44.5385 13.0985 43.5433 11.3646 41.9278 10.4263L25.2068 0.715415C23.5912 -0.222847 21.6008 -0.222847 19.9853 0.715415L3.26429 10.4263C1.64874 11.3646 0.653564 13.0985 0.653564 14.975V34.3969C0.653564 36.2734 1.64874 38.0073 3.26429 38.9456ZM26.4526 28.9786C22.8472 32.2561 23.3317 34.7532 25.707 37.3971H25.7006C26.3748 38.1456 26.7891 39.1355 26.7891 40.2251C26.7891 42.5546 24.9118 44.4431 22.596 44.4431C20.2803 44.4431 18.4029 42.5546 18.4029 40.2251C18.4029 39.1355 18.8172 38.1456 19.4915 37.3971H19.4851C21.8603 34.7532 22.3449 32.2561 18.7395 28.9786H18.7493C17.5822 27.9197 16.8442 26.3914 16.8442 24.6859C16.8442 22.9805 17.5822 21.4522 18.7493 20.3933H18.7395C22.3449 17.1158 21.8603 14.6187 19.4851 11.9748H19.4915C18.8172 11.2263 18.4029 10.2364 18.4029 9.14677C18.4029 6.81731 20.2803 4.9289 22.596 4.9289C24.9118 4.9289 26.7891 6.81731 26.7891 9.14677C26.7891 10.2364 26.3748 11.2263 25.7006 11.9748H25.707C23.3317 14.6187 22.8471 17.1158 26.4526 20.3933H26.4428C27.6099 21.4522 28.3479 22.9805 28.3479 24.6859C28.3479 26.3914 27.6099 27.9197 26.4428 28.9786H26.4526ZM14.2033 28.8952C12.9473 27.4971 12.2288 26.1391 12.3554 24.686C12.2288 23.2329 12.9473 21.8748 14.2033 20.4767H14.1969C14.8711 19.7282 15.2854 18.7384 15.2854 17.6487C15.2854 15.3192 13.4081 13.4308 11.0923 13.4308C8.77654 13.4308 6.89926 15.3192 6.89926 17.6487C6.89926 18.7384 7.3136 19.7282 7.9878 20.4767H7.98137C9.23744 21.8748 9.9559 23.2329 9.82934 24.686C9.9559 26.1391 9.23744 27.4971 7.98137 28.8952H7.9878C7.3136 29.6437 6.89926 30.6336 6.89926 31.7232C6.89926 34.0527 8.77654 35.9411 11.0923 35.9411C13.4081 35.9411 15.2854 34.0527 15.2854 31.7232C15.2854 30.6336 14.8711 29.6437 14.1969 28.8952H14.2033ZM35.3627 24.686C35.2362 26.1391 35.9546 27.4971 37.2107 28.8952H37.2042C37.8785 29.6437 38.2928 30.6336 38.2928 31.7232C38.2928 34.0527 36.4155 35.9411 34.0997 35.9411C31.7839 35.9411 29.9067 34.0527 29.9067 31.7232C29.9067 30.6336 30.321 29.6437 30.9952 28.8952H30.9888C32.2448 27.4971 32.9633 26.1391 32.8367 24.686C32.9633 23.2329 32.2448 21.8748 30.9888 20.4767H30.9952C30.321 19.7282 29.9067 18.7384 29.9067 17.6487C29.9067 15.3192 31.7839 13.4308 34.0997 13.4308C36.4155 13.4308 38.2928 15.3192 38.2928 17.6487C38.2928 18.7384 37.8785 19.7282 37.2042 20.4767H37.2107C35.9546 21.8748 35.2362 23.2329 35.3627 24.686Z" fill="#C2D1D9"/>
<path id="Fill 7" fill-rule="evenodd" clip-rule="evenodd" d="M58.5855 15.5303V28.0729C58.5855 28.9014 58.9058 29.3847 59.5693 29.3847C60.0268 29.3847 60.4387 29.2236 60.8505 29.0165L61.0106 31.5711C60.4615 31.8012 59.432 32.1004 58.3109 32.1004C56.5264 32.1004 55.3824 31.2259 55.3824 28.8554V15.5303H58.5855Z" fill="#C2D1D9"/>
<path id="Fill 8" fill-rule="evenodd" clip-rule="evenodd" d="M74.4402 28.1652C74.4402 28.8556 74.6232 29.3849 75.2638 29.3849C75.7214 29.3849 76.0875 29.2238 76.4764 29.0167L76.6137 31.5713C76.0188 31.8474 75.0351 32.1006 74.0055 32.1006C72.6556 32.1006 71.8092 31.5482 71.4659 30.3515C70.6423 31.3181 69.3154 32.0775 67.6681 32.0775C64.3278 32.0775 62.0627 29.5 62.0627 25.8868C62.0627 22.2275 64.3278 19.627 67.6681 19.627C69.2238 19.627 70.4364 20.0642 71.2372 20.8697V19.8341H74.4402V28.1652ZM71.2372 23.5163C70.6881 22.9409 69.6357 22.4346 68.5604 22.4346C66.5699 22.4346 65.3115 23.8155 65.3115 25.8868C65.3115 27.912 66.5927 29.2928 68.5604 29.2928C69.6128 29.2928 70.5965 28.8095 71.2372 28.2112V23.5163Z" fill="#C2D1D9"/>
<path id="Fill 9" fill-rule="evenodd" clip-rule="evenodd" d="M85.3534 32.1004C83.729 32.1004 82.5622 31.5941 81.7614 30.7886V31.8703H78.5583V15.5303H81.7614V20.8465C82.5851 20.1101 83.8205 19.6268 85.3534 19.6268C88.7165 19.6268 90.9816 22.2043 90.9816 25.8406C90.9816 29.4768 88.7165 32.1004 85.3534 32.1004ZM84.4611 22.4345C83.3858 22.4345 82.3791 22.9408 81.7614 23.5621V28.188C82.3105 28.7403 83.34 29.2927 84.4611 29.2927C86.4287 29.2927 87.7099 27.9118 87.7099 25.8406C87.7099 23.7923 86.4287 22.4345 84.4611 22.4345Z" fill="#C2D1D9"/>
<path id="Fill 10" fill-rule="evenodd" clip-rule="evenodd" d="M98.966 19.5117C102.718 19.5117 105.418 22.2274 105.418 25.8866C105.418 29.4998 102.718 32.1925 98.966 32.1925C95.2597 32.1925 92.56 29.4998 92.56 25.8866C92.56 22.2274 95.2597 19.5117 98.966 19.5117ZM98.966 29.2467C100.979 29.2467 102.329 27.7738 102.329 25.8866C102.329 23.9534 100.979 22.4575 98.966 22.4575C96.9985 22.4575 95.6486 23.9534 95.6486 25.8866C95.6486 27.7738 96.9985 29.2467 98.966 29.2467Z" fill="#C2D1D9"/>
<path id="Fill 11" fill-rule="evenodd" clip-rule="evenodd" d="M108.689 23.5623C108.689 22.8489 108.529 22.3426 107.866 22.3426C107.385 22.3426 106.836 22.5728 106.653 22.6878L106.516 20.1562C106.676 19.9951 107.866 19.627 109.124 19.627C110.497 19.627 111.389 20.1793 111.732 21.4451C112.304 20.3173 113.174 19.627 114.729 19.627C115.85 19.627 116.72 20.0412 116.88 20.3173L116.422 23.2171C116.239 22.964 115.324 22.5957 114.226 22.5957C112.693 22.5957 112.098 23.9306 111.892 25.3344V31.8704H108.689V23.5623Z" fill="#C2D1D9"/>
<path id="Fill 12" fill-rule="evenodd" clip-rule="evenodd" d="M129.234 30.5585C127.999 31.5711 126.237 32.1925 124.201 32.1925C119.694 32.1925 117.681 29.4308 117.681 25.8866C117.681 22.2964 120.152 19.5117 123.995 19.5117C127.633 19.5117 129.349 21.7441 129.349 24.5287C129.349 25.2652 129.234 26.4159 129.097 26.8762H120.975C121.273 28.5563 122.348 29.4998 124.293 29.4998C125.803 29.4998 127.198 28.8785 128.022 28.2571L129.234 30.5585ZM126.283 23.9764C126.283 23.0098 125.551 22.1813 123.927 22.1813C122.211 22.1813 121.296 23.217 121.067 24.3907H126.26C126.283 24.2756 126.283 24.0915 126.283 23.9764Z" fill="#C2D1D9"/>
</g>
</svg>
