<svg width="26" height="43" viewBox="0 0 26 43" fill="none" xmlns="http://www.w3.org/2000/svg">
<g id="Vector">
<path fill-rule="evenodd" clip-rule="evenodd" d="M4.94776 13.2235C6.83749 11.0189 9.59626 9.75 12.5 9.75C15.4037 9.75 18.1625 11.0189 20.0522 13.2235L21.1245 14.4746C22.8187 16.4511 23.75 18.9686 23.75 21.5719C23.75 24.0766 22.8878 26.5049 21.3084 28.4489L18.8619 31.4599C17.8192 32.7433 17.25 34.3464 17.25 36H14.75C14.75 33.7723 15.5168 31.6124 16.9216 29.8834L19.3681 26.8724C20.5855 25.3741 21.25 23.5024 21.25 21.5719C21.25 19.5653 20.5322 17.625 19.2264 16.1015L18.1541 14.8505C16.7393 13.1999 14.6739 12.25 12.5 12.25C10.3261 12.25 8.26068 13.1999 6.8459 14.8505L5.70909 16.1768C4.44489 17.6517 3.75 19.5302 3.75 21.4727C3.75 23.4439 4.46545 25.348 5.76345 26.8314L8.46521 29.9191C9.93813 31.6025 10.75 33.7632 10.75 36H8.25C8.25 34.3688 7.65793 32.793 6.58377 31.5654L3.88201 28.4777C2.18525 26.5385 1.25 24.0494 1.25 21.4727C1.25 18.9334 2.15837 16.4778 3.81095 14.5498L4.94776 13.2235Z" fill="white"/>
<path d="M8.25 36H17.25V38.5C17.25 40.9853 15.2353 43 12.75 43C10.2647 43 8.25 40.9853 8.25 38.5V36Z" fill="white"/>
<path fill-rule="evenodd" clip-rule="evenodd" d="M12.75 0.75C13.4404 0.75 14 1.30964 14 2V8C14 8.69036 13.4404 9.25 12.75 9.25C12.0596 9.25 11.5 8.69036 11.5 8V2C11.5 1.30964 12.0596 0.75 12.75 0.75ZM0.366117 5.11612C0.854272 4.62796 1.64573 4.62796 2.13388 5.11612L6.13388 9.11612C6.62204 9.60427 6.62204 10.3957 6.13388 10.8839C5.64573 11.372 4.85427 11.372 4.36612 10.8839L0.366117 6.88388C-0.122039 6.39573 -0.122039 5.60427 0.366117 5.11612ZM25.1339 5.11612C25.622 5.60427 25.622 6.39573 25.1339 6.88388L21.1339 10.8839C20.6457 11.372 19.8543 11.372 19.3661 10.8839C18.878 10.3957 18.878 9.60427 19.3661 9.11612L23.3661 5.11612C23.8543 4.62796 24.6457 4.62796 25.1339 5.11612Z" fill="white"/>
</g>
</svg>
