<svg width="50" height="40" viewBox="0 0 50 40" fill="none" xmlns="http://www.w3.org/2000/svg">
<path id="Vector (Stroke)" fill-rule="evenodd" clip-rule="evenodd" d="M3.2905 5.42762L25 20.3789L46.7095 5.42763C46.3643 4.13269 45.1568 3.15789 43.7234 3.15789H6.2766C4.84318 3.15789 3.63566 4.13269 3.2905 5.42762ZM46.8085 9.20695L25.9116 23.5986C25.3637 23.9759 24.6363 23.9759 24.0884 23.5986L3.19149 9.20695V33.8158C3.19149 35.4682 4.57485 36.8421 6.2766 36.8421H43.7234C45.4252 36.8421 46.8085 35.4682 46.8085 33.8158V9.20695ZM0 6.18421C0 2.77082 2.82941 0 6.2766 0H43.7234C47.1706 0 50 2.77082 50 6.18421V33.8158C50 37.2292 47.1706 40 43.7234 40H6.2766C2.82941 40 0 37.2292 0 33.8158V6.18421Z" fill="#F2F5F7"/>
</svg>
