<svg width="51" height="42" viewBox="0 0 51 42" fill="none" xmlns="http://www.w3.org/2000/svg">
<g id="Vector">
<path fill-rule="evenodd" clip-rule="evenodd" d="M29.5238 8.52502C30.1506 8.81432 30.4243 9.55698 30.135 10.1838L24.135 23.1838C23.8457 23.8106 23.103 24.0842 22.4762 23.7949C21.8494 23.5056 21.5758 22.763 21.8651 22.1361L27.8651 9.13615C28.1544 8.50933 28.897 8.23572 29.5238 8.52502ZM29.9147 12.0398C30.2572 11.4404 31.0208 11.2322 31.6202 11.5747L38.6202 15.5747V17.7453L31.6202 21.7453C31.0208 22.0878 30.2572 21.8795 29.9147 21.2801C29.5722 20.6807 29.7804 19.9172 30.3798 19.5747L35.4806 16.66L30.3798 13.7453C29.7804 13.4028 29.5722 12.6392 29.9147 12.0398ZM21.0401 11.9666C21.423 12.541 21.2678 13.3171 20.6934 13.7L16.2535 16.66L20.6934 19.6199C21.2678 20.0028 21.423 20.7789 21.0401 21.3533C20.6571 21.9278 19.881 22.083 19.3066 21.7L13.3066 17.7V15.6199L19.3066 11.6199C19.881 11.237 20.6571 11.3922 21.0401 11.9666ZM18.75 35.16C18.75 34.4696 19.3097 33.91 20 33.91H31.5C32.1904 33.91 32.75 34.4696 32.75 35.16C32.75 35.8503 32.1904 36.41 31.5 36.41H20C19.3097 36.41 18.75 35.8503 18.75 35.16Z" fill="#F26322"/>
<path fill-rule="evenodd" clip-rule="evenodd" d="M6.50001 3.15991V29.1599H44.5V3.15991H6.50001ZM5.50001 0.659912C4.67158 0.659912 4.00001 1.33149 4.00001 2.15991V30.1599C4.00001 30.9883 4.67158 31.6599 5.50001 31.6599H45.5C46.3284 31.6599 47 30.9883 47 30.1599V2.15991C47 1.33148 46.3284 0.659912 45.5 0.659912H5.50001Z" fill="#F26322"/>
<path fill-rule="evenodd" clip-rule="evenodd" d="M0.33941 39.6956L4.33941 29.6956L6.6606 30.624L3.3463 38.9098H47.6537L44.3394 30.624L46.6606 29.6956L50.6606 39.6956C50.8146 40.0807 50.7676 40.5171 50.5351 40.8606C50.3026 41.204 49.9148 41.4098 49.5 41.4098H1.50001C1.08523 41.4098 0.697459 41.204 0.464922 40.8606C0.232384 40.5171 0.185365 40.0807 0.33941 39.6956Z" fill="#F26322"/>
</g>
</svg>
